<svg xmlns="http://www.w3.org/2000/svg" width="221.866" height="60" viewBox="0 0 221.866 60">
  <g id="그룹_13" data-name="그룹 13" transform="translate(-107.908 -95.297)">
    <path id="패스_10" data-name="패스 10" d="M150.781,120.978H132.076a.873.873,0,0,0-.874.872v9.115a.874.874,0,0,0,.874.873h7.3v11.325a22.161,22.161,0,0,1-6.168.557c-5.345,0-12.81-1.946-12.81-18.309s7.774-18.519,15.072-18.519a29.665,29.665,0,0,1,10.771,1.643.88.88,0,0,0,1.048-.856l2.086-8.807a.811.811,0,0,0-.334-.681c-.7-.5-4.994-2.893-15.833-2.893-12.488,0-25.3,5.3-25.3,30.751S122.573,155.3,134.932,155.3c10.232,0,16.44-4.358,16.44-4.358a.747.747,0,0,0,.284-.66V121.849A.873.873,0,0,0,150.781,120.978Z" transform="translate(0 0)" fill="#0e0d0d"/>
    <path id="패스_11" data-name="패스 11" d="M307.948,99.7a.869.869,0,0,0-.868-.876H296.549a.874.874,0,0,0-.873.876l0,20.283H279.262V99.7a.871.871,0,0,0-.869-.876H267.861a.873.873,0,0,0-.87.876v54.921a.876.876,0,0,0,.87.879h10.532a.873.873,0,0,0,.869-.879V131.132h16.417l-.029,23.491a.876.876,0,0,0,.873.879H307.08a.873.873,0,0,0,.869-.879Z" transform="translate(-61.164 -1.348)" fill="#0e0d0d"/>
    <g id="그룹_12" data-name="그룹 12" transform="translate(156.902 98.732)">
      <g id="그룹_11" data-name="그룹 11">
        <path id="패스_12" data-name="패스 12" d="M201.045,107.712a6.791,6.791,0,1,0-6.792,6.862A6.821,6.821,0,0,0,201.045,107.712Z" transform="translate(-187.463 -100.855)" fill="#0e0d0d"/>
        <path id="패스_13" data-name="패스 13" d="M200.63,154.347v-25.44a.876.876,0,0,0-.871-.878h-10.5a1,1,0,0,0-.912.98v36.448c0,1.071.667,1.39,1.531,1.39h9.46c1.038,0,1.292-.51,1.292-1.407Z" transform="translate(-187.801 -111.433)" fill="#0e0d0d"/>
      </g>
    </g>
    <path id="패스_14" data-name="패스 14" d="M376.485,128.163H366.034a.877.877,0,0,0-.87.881v27.024a11.811,11.811,0,0,1-6.424,1.942c-3.768,0-4.769-1.71-4.769-5.4V129.044a.876.876,0,0,0-.869-.881H342.495a.878.878,0,0,0-.871.881V154.4c0,10.96,6.108,13.641,14.512,13.641a24.5,24.5,0,0,0,12.452-3.808,22.2,22.2,0,0,0,.384,2.245.922.922,0,0,0,.769.477l6.748-.03a.878.878,0,0,0,.871-.88l0-37A.877.877,0,0,0,376.485,128.163Z" transform="translate(-89.843 -12.752)" fill="#0e0d0d"/>
    <path id="패스_15" data-name="패스 15" d="M430.486,115.661a19.7,19.7,0,0,0-9.974,2.64V99.7a.872.872,0,0,0-.869-.876H409.081a.873.873,0,0,0-.87.876v54.924a.876.876,0,0,0,.872.879h7.328a.874.874,0,0,0,.764-.466,17.1,17.1,0,0,0,.445-2.533s4.319,4.078,12.495,4.078c9.6,0,15.1-4.852,15.1-21.782S436.426,115.661,430.486,115.661Zm-4.122,30.946a12.567,12.567,0,0,1-6.084-1.749V127.464a13.957,13.957,0,0,1,5.4-1.747c3.764-.336,7.39.8,7.39,9.745C433.072,144.9,431.435,146.76,426.364,146.607Z" transform="translate(-115.445 -1.348)" fill="#0e0d0d"/>
    <path id="패스_16" data-name="패스 16" d="M240.9,121.2H233l-.012-10.437c0-.4-.2-.593-.661-.593H221.562c-.419,0-.643.184-.643.586v10.786s-5.4,1.3-5.76,1.408a.875.875,0,0,0-.63.84v6.778a.875.875,0,0,0,.871.881h5.52v16.306c0,12.111,8.5,13.3,14.227,13.3a24.035,24.035,0,0,0,6.27-1.032.815.815,0,0,0,.494-.79l.009-7.456a.889.889,0,0,0-.873-.879c-.46,0-1.638.187-2.85.187-3.881,0-5.2-1.8-5.2-4.14s0-15.5,0-15.5h7.9a.875.875,0,0,0,.871-.881v-8.49A.874.874,0,0,0,240.9,121.2Z" transform="translate(-40.975 -5.881)" fill="#0e0d0d"/>
  </g>
</svg>
